<svg width="175" height="57" viewBox="0 0 175 57" fill="none" xmlns="http://www.w3.org/2000/svg">
<path d="M6.6875 48.0781L17.3047 21.875H20.8203L19.3906 28.9531L8.16406 56H4.48438L6.6875 48.0781ZM5.84375 21.875L7.10938 48.4062L6.40625 56H2.58594L0.242188 21.875H5.84375ZM24.2656 47.7969L33.5469 21.875H39.3594L26.375 56H22.4844L24.2656 47.7969ZM22.1328 21.875L24.5469 48.6875L24.3828 56H20.8203L18.1016 28.4375L18.7109 21.875H22.1328ZM47.6797 30.6406L43.2734 56H37.7656L42.1719 30.6406H47.6797ZM42.9453 24.0781C42.9297 23.1719 43.2266 22.4297 43.8359 21.8516C44.4453 21.2734 45.1953 20.9766 46.0859 20.9609C46.9453 20.9453 47.6797 21.2109 48.2891 21.7578C48.9141 22.2891 49.2266 23 49.2266 23.8906C49.2422 24.7969 48.9375 25.5312 48.3125 26.0938C47.7031 26.6562 46.9609 26.9453 46.0859 26.9609C45.2266 26.9766 44.4922 26.7266 43.8828 26.2109C43.2734 25.6797 42.9609 24.9688 42.9453 24.0781ZM58.1094 36.3828L54.7109 56H49.1797L53.5859 30.6406H58.7656L58.1094 36.3828ZM56.1641 42.3828L54.4766 42.4062C54.6641 40.8906 55.0312 39.3984 55.5781 37.9297C56.1406 36.4453 56.8828 35.1172 57.8047 33.9453C58.7266 32.7578 59.8438 31.8203 61.1562 31.1328C62.4844 30.4453 64.0156 30.125 65.75 30.1719C67.125 30.2031 68.2656 30.4766 69.1719 30.9922C70.0938 31.5078 70.8047 32.2031 71.3047 33.0781C71.8203 33.9531 72.1562 34.9531 72.3125 36.0781C72.4688 37.2031 72.4766 38.3828 72.3359 39.6172L69.6172 56H64.0625L66.8281 39.5469C66.9219 38.6406 66.8906 37.8281 66.7344 37.1094C66.5781 36.375 66.2344 35.7969 65.7031 35.375C65.1719 34.9375 64.4062 34.7109 63.4062 34.6953C62.3125 34.6641 61.3516 34.8672 60.5234 35.3047C59.6953 35.7422 58.9844 36.3438 58.3906 37.1094C57.7969 37.8594 57.3125 38.6953 56.9375 39.6172C56.5781 40.5391 56.3203 41.4609 56.1641 42.3828ZM86.5625 56.4688C84.8281 56.4375 83.2891 56.1016 81.9453 55.4609C80.6172 54.8047 79.5156 53.9219 78.6406 52.8125C77.7656 51.6875 77.1328 50.3984 76.7422 48.9453C76.3516 47.4766 76.2188 45.9141 76.3438 44.2578L76.4375 43.2969C76.6094 41.5938 77.0234 39.9531 77.6797 38.375C78.3359 36.7812 79.2109 35.3672 80.3047 34.1328C81.4141 32.8828 82.7188 31.8984 84.2188 31.1797C85.7188 30.4609 87.3906 30.125 89.2344 30.1719C91 30.2031 92.4922 30.5703 93.7109 31.2734C94.9297 31.9766 95.8984 32.9141 96.6172 34.0859C97.3359 35.2422 97.8125 36.5547 98.0469 38.0234C98.2969 39.4922 98.3359 41.0156 98.1641 42.5938L97.8359 45.0078H78.8047L79.4609 40.9531L92.8906 40.9766L92.9844 40.4844C93.125 39.5 93.0703 38.5703 92.8203 37.6953C92.5859 36.8203 92.1484 36.1016 91.5078 35.5391C90.8672 34.9766 90.0078 34.6797 88.9297 34.6484C87.7578 34.6172 86.75 34.8594 85.9062 35.375C85.0781 35.8906 84.3906 36.5859 83.8438 37.4609C83.2969 38.3359 82.8672 39.2891 82.5547 40.3203C82.2578 41.3359 82.0469 42.3281 81.9219 43.2969L81.8281 44.2344C81.7344 45.1562 81.7578 46.0703 81.8984 46.9766C82.0391 47.8828 82.3125 48.7109 82.7188 49.4609C83.125 50.1953 83.6875 50.7969 84.4062 51.2656C85.125 51.7188 86.0156 51.9609 87.0781 51.9922C88.4062 52.0234 89.6094 51.75 90.6875 51.1719C91.7812 50.5781 92.7734 49.8125 93.6641 48.875L96.3828 51.7578C95.6641 52.8359 94.7734 53.7266 93.7109 54.4297C92.6641 55.1328 91.5234 55.6562 90.2891 56C89.0703 56.3281 87.8281 56.4844 86.5625 56.4688Z" fill="black"/>
<path d="M114.102 39.1719L113.305 43.6719H101.234L102.008 39.1719H114.102ZM128.164 21.875L122.234 56H116.469L122.398 21.875H128.164ZM139.062 36.8047L138.242 41.4688H123.266L124.086 36.8047H139.062ZM143.539 21.875L142.719 26.5625H125.844L126.688 21.875H143.539ZM151.883 30.6406L147.477 56H141.969L146.375 30.6406H151.883ZM147.148 24.0781C147.133 23.1719 147.43 22.4297 148.039 21.8516C148.648 21.2734 149.398 20.9766 150.289 20.9609C151.148 20.9453 151.883 21.2109 152.492 21.7578C153.117 22.2891 153.43 23 153.43 23.8906C153.445 24.7969 153.141 25.5312 152.516 26.0938C151.906 26.6562 151.164 26.9453 150.289 26.9609C149.43 26.9766 148.695 26.7266 148.086 26.2109C147.477 25.6797 147.164 24.9688 147.148 24.0781Z" fill="#BA0C0C"/>
<path d="M172.524 19.6325C172.524 14.9561 170.517 10.4712 166.945 7.16444C163.373 3.85771 158.528 2 153.476 2M165.381 19.6325C165.381 18.1853 165.073 16.7523 164.475 15.4152C163.876 14.0782 163 12.8633 161.894 11.84C160.789 10.8166 159.476 10.0049 158.032 9.45107C156.588 8.89724 155.04 8.61219 153.476 8.61219M158.238 19.6325C158.238 18.4634 157.736 17.3422 156.843 16.5155C155.95 15.6888 154.739 15.2244 153.476 15.2244" stroke="#BA0C0C" stroke-width="3" stroke-linecap="round" stroke-linejoin="round"/>
</svg>
